<svg height="512pt" viewBox="0 0 512 512" width="512pt" xmlns="http://www.w3.org/2000/svg"><path d="m457 351c-5.519531 0-10 4.480469-10 10s4.480469 10 10 10 10-4.480469 10-10-4.480469-10-10-10zm0 0"/><path d="m457 306h-77v-266c0-22.054688-17.945312-40-40-40h-300c-22.054688 0-40 17.945312-40 40v432c0 22.054688 17.945312 40 40 40h105c5.523438 0 10-4.476562 10-10s-4.476562-10-10-10h-105c-11.027344 0-20-8.972656-20-20v-432c0-11.027344 8.972656-20 20-20h300c11.027344 0 20 8.972656 20 20v266c-15.285156 0-296.410156 0-310 0-5.523438 0-10 4.476562-10 10 0 60.652344 49.347656 110 110 110h120c5.523438 0 10-4.476562 10-10 0-16.542969 13.457031-30 30-30h50v86c0 11.027344-8.972656 20-20 20h-105c-5.523438 0-10 4.476562-10 10s4.476562 10 10 10h105c22.054688 0 40-17.945312 40-40v-86h28.195312c9.308594 18.199219 28.113282 30 48.804688 30 30.328125 0 55-24.671875 55-55s-24.671875-55-55-55zm-195.996094 100h-111.003906c-46.246094 0-84.457031-35.0625-89.449219-80h239.449219v41.003906c-19.5625 3.988282-35.007812 19.433594-38.996094 38.996094zm195.996094-10c-14.671875 0-27.863281-9.382812-32.828125-23.351562-1.417969-3.984376-5.191406-6.648438-9.421875-6.648438h-94.75v-40h137c19.300781 0 35 15.699219 35 35s-15.699219 35-35 35zm0 0"/><path d="m60 226c0 33.085938 26.914062 60 60 60 12.71875 0 24.859375-3.957031 34.992188-11.265625 10.140624 7.3125 22.285156 11.265625 35.007812 11.265625 12.71875 0 24.859375-3.957031 34.992188-11.265625 10.140624 7.3125 22.285156 11.265625 35.007812 11.265625 33.085938 0 60-26.914062 60-60s-26.914062-60-60-60c-12.722656 0-24.867188 3.953125-35.007812 11.265625-10.136719-7.3125-22.273438-11.265625-34.992188-11.265625-12.722656 0-24.867188 3.953125-35.007812 11.265625-10.136719-7.3125-22.273438-11.265625-34.992188-11.265625-33.085938 0-60 26.914062-60 60zm240 0c0 22.054688-17.945312 40-40 40-7.410156 0-14.527344-2.019531-20.714844-5.777344 6.957032-9.960937 10.714844-21.78125 10.714844-34.222656s-3.757812-24.265625-10.714844-34.222656c6.1875-3.757813 13.304688-5.777344 20.714844-5.777344 22.054688 0 40 17.945312 40 40zm-70 0c0 22.125-17.941406 40-40 40-7.410156 0-14.527344-2.019531-20.714844-5.777344 6.957032-9.960937 10.714844-21.78125 10.714844-34.222656s-3.757812-24.261719-10.714844-34.222656c6.1875-3.757813 13.304688-5.777344 20.714844-5.777344 21.992188 0 40 17.808594 40 40zm-110-40c21.972656 0 40 17.8125 40 40 0 22.125-17.941406 40-40 40-22.054688 0-40-17.945312-40-40s17.945312-40 40-40zm0 0"/><path d="m200 502c0 5.523438-4.476562 10-10 10s-10-4.476562-10-10 4.476562-10 10-10 10 4.476562 10 10zm0 0"/><path d="m280 126c5.523438 0 10-4.476562 10-10v-66c0-5.523438-4.476562-10-10-10h-180c-5.523438 0-10 4.476562-10 10v66c0 5.523438 4.476562 10 10 10zm-170-66h160v46h-160zm0 0"/></svg>