<svg id="Capa_1" enable-background="new 0 0 507.984 507.984" height="512" viewBox="0 0 507.984 507.984" width="512" xmlns="http://www.w3.org/2000/svg"><g><path d="m505.051 67.982-1.648-1.648c1.515-4.489 1.591-9.424.063-14.132l-4.131-12.724c-4.732-14.575-16.259-26.102-30.833-30.833l-12.724-4.13c-4.707-1.529-9.642-1.454-14.131.062l-1.649-1.649c-3.906-3.904-10.236-3.904-14.143 0-3.905 3.905-3.905 10.237 0 14.143l-14.142 14.142c-3.906-3.904-10.236-3.904-14.143 0-3.905 3.905-3.905 10.237 0 14.143l-14.142 14.142c-3.906-3.904-10.236-3.904-14.143 0-3.905 3.905-3.905 10.237 0 14.143l1.241 1.241c-2.204 4.679-3.214 9.948-2.851 15.322.189 2.791-.8 5.541-2.713 7.559l-98.816 98.816c-30.304-26.32-77.523-25.914-107.144 3.707-9.12 9.12-16.66 19.52-22.41 30.91-7.75 15.36-21.632 26.904-38.03 31.88-21.505 6.525-56.731 18.913-71.409 33.91-15.445 15.781-27.15 38.422-27.15 65.33 0 12.71 2.6 25.04 7.73 36.65 3.449 7.8 7.456 15.446 11.899 22.75 6.932 11.395 24.012 1.005 17.08-10.39-3.978-6.54-7.58-13.42-10.68-20.45-4-9.03-6.021-18.64-6.03-28.56 0-19.01 7.952-37.47 21.29-51.19 11.894-12.234 48.904-24.778 62.99-28.89 25.162-7.344 41.201-24.635 50.17-42.03 4.872-9.449 11.075-18.166 18.689-25.78 21.688-21.688 56.175-22.38 78.813-3.655l-48.133 48.133c-15.862-1.985-31.647 3.363-43.133 14.849-20.273 20.275-20.273 53.264 0 73.539 9.822 9.821 22.88 15.23 36.771 15.23 13.89 0 26.947-5.409 36.77-15.23 11.485-11.485 16.832-27.271 14.848-43.132l48.129-48.128c18.727 22.637 18.035 57.126-3.653 78.815-7.615 7.615-16.332 13.818-25.78 18.689-17.395 8.969-34.685 25.008-42.03 50.17-4.112 14.087-16.656 51.097-28.89 62.99-13.72 13.338-32.18 21.29-51.19 21.29-9.92-.01-19.53-2.03-28.56-6.03-7.03-3.1-13.91-6.701-20.45-10.68-11.395-6.932-21.785 10.148-10.39 17.08 7.304 4.443 14.95 8.45 22.75 11.899 11.61 5.131 23.94 7.73 36.65 7.73 26.908 0 49.55-11.706 65.33-27.15 14.998-14.679 27.385-49.904 33.91-71.409 4.976-16.398 16.52-30.28 31.88-38.03 11.39-5.75 21.79-13.29 30.91-22.41 29.621-29.621 30.027-76.843 3.705-107.146l98.814-98.814c2.018-1.917 4.772-2.909 7.565-2.72 5.383.363 10.649-.647 15.324-2.85l1.24 1.24c3.906 3.904 10.236 3.904 14.143 0 3.905-3.905 3.905-10.237 0-14.143l14.142-14.143c3.905 3.905 10.235 3.905 14.142 0 3.905-3.905 3.905-10.237 0-14.142l14.142-14.142c3.905 3.905 10.235 3.905 14.142 0 3.905-3.907 3.905-10.238-.001-14.144zm-284.963 265.165c-6.044 6.044-14.08 9.373-22.627 9.373-8.548 0-16.584-3.329-22.628-9.373-12.477-12.477-12.477-32.778 0-45.255 6.69-6.69 15.752-9.997 24.985-9.295l29.565 29.564c.7 9.233-2.605 18.297-9.295 24.986zm17.14-45.424-16.971-16.97 151.86-151.861 16.971 16.971zm246.604-226.806-56.56 56.56c-2.037 2.037-5.005 3.084-8.148 2.872-5.054-.339-10.065.611-14.578 2.686l-19.6-19.6c2.075-4.514 3.026-9.527 2.686-14.579-.212-3.141.834-6.11 2.872-8.147l56.56-56.56c.668-.668 1.641-.901 2.539-.61l12.724 4.13c8.502 2.76 15.226 9.484 17.986 17.986l4.13 12.724c.291.897.058 1.87-.611 2.538zm-342.941 374.054-67.882-67.882c-3.905-3.905-3.905-10.237 0-14.143 3.906-3.905 10.236-3.905 14.143 0l67.882 67.882c3.905 3.905 4.076 10.067 0 14.143s-10.237 3.905-14.143 0zm-74.986 16.838c0 5.52-4.475 9.996-9.996 9.996s-9.996-4.475-9.996-9.996c0-5.52 4.475-9.996 9.996-9.996s9.996 4.476 9.996 9.996z"/></g></svg>