<svg width="33" height="28" viewBox="0 0 33 28" fill="none" xmlns="http://www.w3.org/2000/svg">
<path d="M32.0531 5.18996C31.7931 4.91515 30.2268 5.0004 29.8873 5.05292C29.613 5.09572 29.2228 5.10579 28.8095 5.11694C28.3983 5.12809 27.9728 5.13925 27.6044 5.18313L27.3056 5.21946C26.6105 5.30399 25.8223 5.39966 25.119 5.39966C24.6811 5.39966 24.3077 5.47052 23.946 5.53887C23.614 5.60145 23.2998 5.66116 22.9592 5.66116C22.2634 5.66116 20.8871 5.57951 20.2284 5.44642C19.5651 5.31262 18.6171 5.26909 18.3654 5.26909C18.2241 5.26909 18.0451 5.30506 17.8083 5.38096C17.9356 5.15435 17.9267 4.88386 17.8982 4.70617C18.0301 4.66984 18.2059 4.60366 18.3408 4.4864C18.59 4.26914 18.3967 4.00836 18.2812 3.85298C18.2188 3.76953 18.1549 3.68248 18.1203 3.594C18.0644 3.4512 18.0875 3.14402 18.1104 2.84691C18.1278 2.61419 18.146 2.37355 18.1318 2.16421C18.0936 1.5923 17.6339 1.38439 17.0533 1.12146L17.0116 1.10239C16.5832 0.908156 16.3115 0.933335 16.0929 0.952758C15.9927 0.961751 15.906 0.969664 15.8104 0.957435C15.7462 0.949521 15.7462 0.949521 15.7141 0.824707C15.6809 0.694857 15.631 0.498824 15.4174 0.33768L15.3261 0.26718C15.0048 0.0168327 14.7783 -0.122369 14.2048 0.144524C13.5804 0.435158 13.4352 0.728309 13.6067 1.3513C13.6556 1.52755 13.7041 1.65165 13.743 1.75128C13.8168 1.94012 13.8343 1.98472 13.7697 2.1581C13.6777 2.40628 13.7369 2.62534 13.8061 2.87856C13.8557 3.06057 13.9117 3.26703 13.9277 3.53681C13.9505 3.92492 14.1135 4.15656 14.2444 4.34252C14.3532 4.49755 14.432 4.60941 14.422 4.77919C14.4152 4.89249 14.3774 5.0468 14.3264 5.21226C13.8468 5.46405 13.4684 5.61332 12.1021 5.53059C11.0418 5.46585 10.7415 5.61009 10.4509 5.74821C10.3424 5.8 10.2401 5.84892 10.0921 5.88309C9.79785 5.9518 9.12524 5.95683 8.47473 5.96223C7.93193 5.96654 7.37093 5.97086 6.96116 6.01043C6.49254 6.05539 4.13302 6.29099 3.70399 6.50716C3.36982 6.6755 2.6487 6.93232 2.31417 7.01685C2.21966 7.04059 1.97251 7.04059 1.73392 7.04059C1.06665 7.04059 0.649741 7.05462 0.482835 7.2449C0.427913 7.30748 0.403662 7.38698 0.413647 7.46899C0.472849 7.94882 1.21038 8.01357 1.92401 8.01357C2.53564 8.01357 3.0599 8.0445 3.57667 7.78408C3.89871 7.6215 4.53032 7.63948 4.99074 7.742C5.19117 7.78696 5.36378 7.82544 5.49181 7.83839C5.9212 7.88156 7.22828 8.01357 8.18728 8.01357H10.8653C11.3902 8.01357 11.8268 8.09234 11.9865 8.12543C12.1053 8.31463 12.4819 8.96712 12.5507 9.72859C12.5729 9.9739 12.6064 10.2501 12.6406 10.5368C12.7383 11.3458 12.8485 12.2623 12.7287 12.7173C12.5522 13.3842 12.1998 14.0363 11.5111 14.9668C11.1912 15.3992 10.7665 16.0128 10.3553 16.606C9.82246 17.3746 9.27146 18.1703 9.00541 18.4868C8.84777 18.6749 8.68586 18.8965 8.51431 19.131C8.17765 19.5911 7.79569 20.1133 7.39982 20.4223C7.10774 20.6507 6.56886 20.9324 6.04817 21.2046C5.50465 21.4892 4.94259 21.7834 4.62482 22.0352C4.26819 22.3179 3.85413 22.7754 3.4547 23.2179C3.16047 23.543 2.85626 23.8793 2.58379 24.1362C1.93221 24.7494 1.32593 25.4044 0.932199 25.8458C0.871927 25.9134 0.808445 25.9818 0.744607 26.0508C0.368354 26.4576 -0.0203807 26.8781 0.0249123 27.2885C0.0866106 27.8504 0.518499 27.9227 0.887619 27.9227C1.00888 27.9227 1.12086 27.9428 1.22892 27.9619C1.3352 27.9809 1.44326 28 1.55703 28C1.68221 28 1.81416 27.9766 1.95825 27.904C2.32023 27.7216 2.18221 27.3871 2.09983 27.1882C2.05561 27.081 2.01067 26.9709 2.01067 26.8767C2.01067 26.6652 2.2621 26.4907 2.50568 26.322L2.62979 26.2346C2.94471 26.0073 3.9251 25.3203 4.39301 25.0199C4.49608 24.9537 4.63588 24.8674 4.79744 24.7667C5.37662 24.4074 6.25216 23.8646 6.70117 23.4812C7.05638 23.1783 7.41944 23.0391 7.77108 22.9042C7.94797 22.8359 8.13093 22.7657 8.30818 22.6762L8.44941 22.6057C8.95726 22.3514 9.6527 22.0032 10.4915 21.3992C10.8496 21.1406 11.1959 20.855 11.53 20.5791C12.0561 20.145 12.5532 19.7342 13.0661 19.4497C13.2904 19.3249 13.4512 19.2274 13.5828 19.1465C13.9545 18.9199 14.0664 18.8515 14.7416 18.7278C15.5925 18.5702 16.1842 18.7425 17.0023 18.9803L17.1688 19.0285C18.0686 19.2886 19.0408 19.3364 19.8982 19.3799L19.972 19.3839C20.8404 19.4278 21.6307 19.4278 22.0109 19.4278C22.384 19.4278 22.63 19.4278 22.839 19.6382C22.9235 19.7238 22.9153 19.9313 22.905 20.1935C22.8936 20.4637 22.88 20.7996 22.966 21.1665C23.1397 21.9114 23.5776 23.1941 23.8843 23.8578C24.1825 24.5016 24.3469 25.0519 24.3872 25.5415C24.4093 25.8059 24.3854 26.0328 24.3608 26.2727C24.3387 26.4803 24.3169 26.6947 24.3276 26.9396C24.3405 27.2446 24.4728 27.4277 24.7214 27.4842C24.8904 27.522 25.0701 27.5022 25.2966 27.4763C25.389 27.4651 25.4928 27.4533 25.6101 27.4432C26.3027 27.3856 26.5477 27.4349 26.7656 27.4777C26.8965 27.5043 27.032 27.531 27.2371 27.531H28.9222C29.1151 27.531 29.2539 27.363 29.3009 27.2072C29.3494 27.0465 29.307 26.8979 29.1907 26.8198C29.1026 26.7609 29.0142 26.7565 28.9208 26.7522C28.7956 26.7468 28.6076 26.7386 28.256 26.5864C27.8619 26.4163 27.5035 26.167 27.2157 25.967C27.073 25.8681 26.9486 25.7821 26.848 25.7239C26.5826 25.571 26.3066 25.208 26.1921 24.862C26.0587 24.4581 25.7659 23.1743 25.6818 22.1575C25.6361 21.6032 25.5324 21.037 25.4414 20.5367C25.3619 20.1029 25.2934 19.7281 25.2934 19.5144C25.2934 19.2515 25.2449 18.9781 25.206 18.7591C25.1811 18.6206 25.1475 18.4307 25.159 18.3803C25.2235 18.121 25.1386 17.6221 24.7495 17.3275C24.3815 17.0491 23.4232 16.7318 22.497 16.4254C22.0155 16.266 21.3929 16.0855 20.7912 15.9107C20.2694 15.76 19.7773 15.6175 19.4745 15.5146C19.2726 15.447 19.1089 15.4039 18.9741 15.3682C18.6771 15.2891 18.5883 15.2611 18.5184 15.1352C18.3832 14.8949 18.1029 14.3935 18.1346 13.3334C18.1442 13.0083 18.1475 12.7105 18.1503 12.4277C18.1571 11.767 18.1624 11.1958 18.2519 10.5645C18.3111 10.1437 18.3001 9.86851 18.2905 9.6473C18.2794 9.38112 18.2716 9.18905 18.3925 8.85741C18.6114 8.25888 18.7587 7.88695 19.0216 7.78336C19.1532 7.73192 19.5647 7.74236 19.9278 7.75135C20.375 7.76286 20.8383 7.77437 21.1429 7.70351L21.3404 7.65747C21.9128 7.52294 22.9792 7.27259 23.3073 7.27259C23.7192 7.27259 25.1197 7.18051 25.9842 6.96218C26.2082 6.90571 26.4325 6.85211 26.6472 6.80103C27.2763 6.65068 27.8191 6.52083 28.093 6.38271C28.3469 6.25502 28.776 6.26293 29.0887 6.26833L29.2685 6.27048C29.4907 6.27048 29.8056 6.17013 30.1383 6.06366C30.373 5.98884 30.6159 5.91151 30.8109 5.87554C30.9083 5.85791 31.0124 5.84173 31.1177 5.8259C31.6216 5.74893 32.0578 5.68238 32.1159 5.38995C32.1273 5.31801 32.1059 5.24499 32.0531 5.18996ZM17.7662 2.81957C17.7395 3.171 17.7141 3.50299 17.799 3.72025C17.8507 3.85298 17.9328 3.96376 18.0052 4.06124C18.048 4.11843 18.1121 4.20512 18.1157 4.22166C17.9852 4.33533 17.7491 4.38784 17.6692 4.39899C17.6178 4.40547 17.5726 4.43496 17.5455 4.47885C17.5183 4.52273 17.5112 4.57668 17.5273 4.62596C17.5287 4.63136 17.6917 5.15111 17.3853 5.33708C17.0215 5.55721 16.8614 5.49067 16.5094 5.34751C16.421 5.31154 16.3204 5.3547 16.2844 5.44355C16.2487 5.53275 16.2915 5.63418 16.38 5.67015C16.4074 5.68166 16.4331 5.69174 16.4606 5.70253C16.5251 5.88417 16.7698 6.59673 16.8019 6.98052C16.839 7.42259 17.2869 8.9333 15.9488 8.9333C14.6103 8.9333 14.4998 7.71754 14.427 7.20173C14.3938 6.96505 14.3482 6.57946 14.3086 6.23056C14.4338 5.94712 14.7426 5.2119 14.7672 4.79969C14.7726 4.71121 14.7612 4.63459 14.7433 4.56265C14.9074 4.5605 15.0839 4.47597 15.1909 4.10656C15.3407 3.59112 15.1481 3.03827 15.6464 2.96453C16.1446 2.89079 16.1389 3.25948 16.2516 3.59112C16.3632 3.9224 16.6931 3.75946 16.6931 3.75946C16.6931 3.75946 16.7148 2.70663 16.9409 2.55951C17.1235 2.44046 17.3646 2.00307 17.5601 1.78293C17.7017 1.89336 17.7758 2.01494 17.7876 2.18759C17.8001 2.37139 17.7823 2.59908 17.7662 2.81957ZM12.233 7.86969C12.2087 7.8348 12.1731 7.81034 12.132 7.80027C12.1092 7.79451 11.5682 7.66466 10.8646 7.66466H8.18657C7.24469 7.66466 5.9508 7.53409 5.52569 7.49129C5.41799 7.4805 5.25429 7.44417 5.06492 7.40172C4.49679 7.27511 3.85377 7.25425 3.42153 7.47186C2.95041 7.70962 2.48464 7.66466 1.92329 7.66466C1.02885 7.66466 0.818788 7.52834 0.769928 7.45856C0.927919 7.38878 1.46466 7.38878 1.73285 7.38878C2.02815 7.38878 2.26103 7.38878 2.39691 7.35424C2.75533 7.26396 3.49963 6.99887 3.8577 6.8183C4.1159 6.68809 5.63054 6.48774 6.99326 6.35681C7.3877 6.31904 7.94156 6.31437 8.47687 6.31041C9.17695 6.30466 9.8378 6.29926 10.1691 6.22229C10.3535 6.17948 10.4776 6.12049 10.5978 6.06294C10.8496 5.94316 11.1099 5.81943 12.0814 5.87806C12.7911 5.9205 13.2565 5.90144 13.6121 5.83741C13.5907 6.11797 13.5393 6.69277 13.437 7.27511C13.3357 7.85314 13.0112 8.80381 12.8332 9.30271C12.6634 8.49987 12.2533 7.89882 12.233 7.86969ZM13.0618 12.8069C13.1649 12.4169 13.1288 11.8058 13.0593 11.1526C13.545 10.9721 15.004 10.4832 16.1442 10.6649C17.1125 10.8192 17.6125 11.1879 17.8268 11.3976C17.8108 11.7303 17.8058 12.0644 17.8026 12.4249C17.7997 12.7051 17.7969 13.0011 17.7869 13.3234C17.7716 13.8467 17.8283 14.2424 17.9071 14.5496C17.6293 14.5345 16.988 14.4985 15.7223 14.423C14.2473 14.3345 13.0779 13.9582 12.6659 13.8097C12.8464 13.4611 12.9748 13.1363 13.0618 12.8069ZM11.3096 20.309C10.9798 20.582 10.6384 20.8637 10.2893 21.1151C9.47296 21.7032 8.79142 22.0442 8.29463 22.2934L8.15268 22.3643C7.99077 22.446 7.82386 22.51 7.64697 22.578C7.26858 22.7229 6.87735 22.8733 6.4772 23.215C6.04781 23.5815 5.18582 24.116 4.61555 24.47C4.45221 24.571 4.31098 24.6588 4.20685 24.7261C3.73394 25.0293 2.7457 25.7221 2.42794 25.9505L2.30918 26.0343C2.0071 26.244 1.66473 26.4814 1.66473 26.8763C1.66473 27.0403 1.72643 27.19 1.781 27.3213C1.87729 27.5547 1.86267 27.5619 1.80346 27.5917C1.63085 27.6788 1.48713 27.6536 1.28884 27.618C1.17186 27.5971 1.03919 27.5734 0.887619 27.5734C0.476059 27.5734 0.392249 27.4691 0.367998 27.2493C0.340537 26.9986 0.688972 26.6209 0.997106 26.2879C1.06237 26.2174 1.12692 26.1472 1.18862 26.0785C1.57807 25.6422 2.17686 24.9944 2.81953 24.3901C3.10234 24.1239 3.41119 23.7826 3.71041 23.452C4.10092 23.0204 4.50464 22.574 4.83881 22.3086C5.13054 22.0773 5.67798 21.791 6.20758 21.5136C6.76643 21.2216 7.29461 20.945 7.61167 20.6971C8.04569 20.359 8.44263 19.8162 8.79285 19.3371C8.96082 19.1076 9.11953 18.8915 9.27003 18.712C9.50078 18.4364 9.91055 17.8541 10.3674 17.1966C10.6335 17.3394 11.1944 17.6624 11.6499 18.0695C12.1092 18.4796 12.5768 18.9799 12.7879 19.2119C12.2872 19.5069 11.8111 19.8954 11.3096 20.309ZM20.6938 16.2459C21.2926 16.4193 21.9125 16.5991 22.3872 16.7563C23.2452 17.0405 24.2178 17.3624 24.5402 17.6063C24.8308 17.826 24.8487 18.1886 24.8216 18.2958C24.792 18.4159 24.8219 18.5857 24.864 18.8206C24.9025 19.0371 24.946 19.2817 24.946 19.5141C24.946 19.7598 25.0174 20.1489 25.1001 20.5996C25.1896 21.0917 25.2909 21.6492 25.3358 22.1866C25.4218 23.2294 25.7242 24.5538 25.8622 24.9717C26.0056 25.4052 26.3319 25.8289 26.6747 26.0264C26.7688 26.0807 26.8844 26.1612 27.0174 26.254C27.318 26.4627 27.6921 26.7227 28.1176 26.9065C28.5274 27.0831 28.7631 27.0939 28.9036 27.0997C28.9229 27.1008 28.9489 27.1018 28.9693 27.104C28.96 27.136 28.935 27.1756 28.9204 27.1821H27.2353C27.0641 27.1821 26.9557 27.1601 26.8305 27.1353C26.5901 27.0875 26.3184 27.0335 25.5798 27.0957C25.4578 27.1058 25.3512 27.118 25.2556 27.1292C25.0537 27.1522 24.9072 27.1698 24.7948 27.1439C24.7053 27.1234 24.6775 27.0745 24.6704 26.9134C24.6611 26.7047 24.6803 26.5123 24.7021 26.3087C24.7274 26.0634 24.7542 25.8095 24.7292 25.512C24.6853 24.9807 24.5109 24.3923 24.1953 23.7099C23.8965 23.0636 23.4699 21.8133 23.2994 21.0863C23.2253 20.7651 23.237 20.4694 23.2477 20.2079C23.2616 19.8734 23.2731 19.5853 23.0808 19.3911C22.7709 19.0789 22.4178 19.0789 22.0084 19.0789C21.6311 19.0789 20.8465 19.0789 19.987 19.0357L19.9125 19.0317C19.2662 18.999 18.554 18.9609 17.8671 18.8325C17.9706 18.4472 18.2266 17.5009 18.365 17.0379C18.4948 16.6002 18.9381 16.0412 19.1578 15.7826C19.2224 15.8013 19.2873 15.8207 19.3625 15.8463C19.6724 15.9502 20.1685 16.0937 20.6938 16.2459ZM31.0634 5.48131C30.955 5.49786 30.8473 5.51441 30.7464 5.53311C30.5299 5.57268 30.2767 5.65325 30.0317 5.73166C29.7385 5.82518 29.4347 5.92194 29.266 5.92194L29.0927 5.91978C28.7246 5.91367 28.266 5.90468 27.9364 6.07121C27.6986 6.19099 27.1483 6.32264 26.5652 6.46184C26.3491 6.51364 26.1237 6.56759 25.8983 6.62442C25.063 6.83485 23.7049 6.92405 23.3051 6.92405C22.966 6.92405 22.1086 7.11864 21.2598 7.31827L21.0637 7.36396C20.8012 7.42475 20.3401 7.41323 19.9346 7.4028C19.4813 7.39129 19.09 7.38122 18.8943 7.45856C18.5044 7.61215 18.3283 8.02507 18.0872 8.68152C18.054 8.21356 17.9884 7.5715 17.8611 7.16469C17.7213 6.71866 17.4795 6.232 17.3208 5.93561C17.6599 5.79353 18.1175 5.61692 18.3657 5.61692C18.5747 5.61692 19.5169 5.65792 20.1614 5.78813C20.8408 5.92482 22.2491 6.00935 22.9596 6.00935C23.3326 6.00935 23.6771 5.94424 24.0099 5.8813C24.3562 5.81583 24.7139 5.74785 25.119 5.74785C25.843 5.74785 26.6768 5.64641 27.3469 5.56476L27.6447 5.52879C27.9981 5.48707 28.4151 5.47592 28.8184 5.46513C29.2428 5.45398 29.6437 5.44319 29.9404 5.39751C30.3798 5.32916 31.1886 5.33024 31.5909 5.38384C31.4336 5.42484 31.2164 5.45793 31.0634 5.48131Z" fill="black"/>
</svg>
