<svg width="31" height="32" viewBox="0 0 31 32" fill="none" xmlns="http://www.w3.org/2000/svg">
<path d="M15.5328 15.0879C15.703 15.5287 15.8364 15.922 15.9314 16.2324C15.9373 16.2518 15.9414 16.2683 15.9472 16.2875H7.64723C7.39196 16.2875 7.18498 16.4926 7.18498 16.746V18.9842C7.18498 19.2376 7.39196 19.4427 7.64723 19.4427H8.73258L10.5543 31.6087C10.588 31.8334 10.7825 32 11.0116 32H24.5941C24.8232 32 25.0177 31.8334 25.0513 31.6087L26.8733 19.4427H27.9587C28.214 19.4427 28.4209 19.2376 28.4209 18.9842V16.746C28.4209 16.4926 28.214 16.2875 27.9587 16.2875H20.424C20.6316 15.478 20.8521 14.688 21.0913 13.9454C21.1364 13.8032 21.1878 13.6604 21.2354 13.5178C24.4473 12.8743 26.8392 11.4235 28.3338 9.18859C30.9204 5.32013 29.9011 0.560661 29.8564 0.359626C29.8018 0.114713 29.5585 -0.0419957 29.3107 0.00994237C24.7489 0.953328 21.5885 2.84682 19.9174 5.63847C18.0382 8.77729 18.6821 11.9855 18.8759 12.7495C18.8307 12.8446 18.7816 12.9396 18.7376 13.0347C18.5388 13.4596 18.341 13.9028 18.1465 14.36C17.9982 14.0665 17.8237 13.7438 17.6301 13.4066C17.8868 10.793 17.1922 8.65567 15.5515 7.05735C10.9976 2.62071 0.83311 3.87214 0.402684 3.92811C0.24988 3.94736 0.116938 4.04138 0.0483226 4.17839C-0.0202928 4.3154 -0.0155527 4.47703 0.0607366 4.60957C5.18637 13.5223 13.8185 14.8996 15.5328 15.0879ZM24.1955 31.083H11.4102L9.66726 19.4427H25.9387L24.1955 31.083ZM27.4964 17.2045V18.5257H8.10948V17.2045H27.4964ZM20.7123 6.10636C22.1891 3.63976 24.9861 1.92626 29.0301 1.0093C29.2069 2.24953 29.4917 5.80368 27.5592 8.68757C26.2893 10.5831 24.2798 11.8583 21.5943 12.4997C22.4407 10.2234 23.5525 7.99635 24.6911 6.34187C25.3527 5.39803 25.947 4.63777 26.4203 4.13227C26.6613 3.85691 26.8259 3.67916 26.9473 3.56365L27.1486 3.36216C27.3206 3.18978 27.3278 2.91487 27.1651 2.73399C27.0026 2.55355 26.7263 2.52937 26.5342 2.67891L26.3191 2.84637C26.1697 2.95606 25.9682 3.12486 25.6775 3.38321C25.1152 3.84975 24.3869 4.57151 23.5689 5.47281C22.1879 7.0189 20.7628 9.13405 19.5835 11.3468C19.4668 10.0765 19.5421 8.06102 20.7123 6.10636ZM17.7231 15.6213L18.0797 15.4663L18.0923 15.4713L17.7504 15.6853C17.8244 15.8554 17.9941 15.9709 18.1817 15.962C18.3688 15.9593 18.5356 15.8447 18.6044 15.6723C18.9191 14.8838 19.2459 14.1263 19.577 13.4188C20.3302 11.7917 21.2588 10.1571 22.2408 8.70548C21.5579 10.0544 20.9418 11.5274 20.4395 12.9946C20.4347 13.01 20.4273 13.0238 20.4241 13.0398C20.3527 13.2494 20.2762 13.4593 20.2099 13.6682C19.9434 14.496 19.6972 15.3791 19.4694 16.2875H16.9082C16.8775 16.1804 16.8505 16.079 16.8159 15.966C16.4467 14.7589 15.5775 12.4253 13.9102 10.3608C13.5748 9.92871 13.199 9.50917 12.794 9.11113C13.2434 9.45903 13.6675 9.83199 14.0553 10.2238C16.0135 12.1311 17.1938 14.4245 17.7231 15.6213ZM14.9046 7.7124C16.055 8.83334 16.6656 10.276 16.7455 12.0049C16.1843 11.1951 15.5096 10.3553 14.709 9.57544C13.1179 7.96806 10.9365 6.64499 8.88614 6.04009C8.06276 5.77234 7.36036 5.63444 6.74034 5.52877C6.5521 5.48937 6.38778 5.47191 6.25439 5.45803C6.20338 5.45266 6.15801 5.44818 6.10226 5.44012L5.89235 5.41594C5.64723 5.38371 5.42626 5.55206 5.38338 5.79115C5.34072 6.03024 5.4933 6.26083 5.7312 6.31724L5.92169 6.36202C5.97225 6.3759 6.03094 6.38933 6.09729 6.4041C6.20202 6.42783 6.33045 6.45604 6.49206 6.50977C7.06987 6.68081 7.70321 6.88453 8.43247 7.22123C10.1903 7.97522 11.9641 9.35784 13.1832 10.9272C14.0363 11.9837 14.6623 13.111 15.1184 14.1087C12.8102 13.7588 5.77501 12.1135 1.229 4.76717C3.603 4.57016 11.3299 4.22809 14.9046 7.7124Z" fill="black"/>
</svg>
