<svg height="512pt" viewBox="0 0 512 512" width="512pt" xmlns="http://www.w3.org/2000/svg"><path d="m502 312h-42c-48.855469 0-105.203125 35.042969-140 73.160156v-129.160156c0-51.765625-39.539062-94.46875-90-99.503906v-46.496094c16.542969 0 30-13.457031 30-30v-50c0-16.542969-13.457031-30-30-30h-25c-5.523438 0-10 4.476562-10 10s4.476562 10 10 10h25c5.515625 0 10 4.484375 10 10v50c0 5.515625-4.484375 10-10 10h-140c-5.515625 0-10-4.484375-10-10v-50c0-5.515625 4.484375-10 10-10h25c5.523438 0 10-4.476562 10-10s-4.476562-10-10-10h-25c-16.542969 0-30 13.457031-30 30v50c0 16.542969 13.457031 30 30 30v46.496094c-50.460938 5.035156-90 47.738281-90 99.503906v226c0 16.542969 13.457031 30 30 30h292c104.765625 0 190-85.234375 190-190 0-.066406-.007812-.132812-.011719-.199219-.105469-5.511719-4.636719-9.800781-9.988281-9.800781zm-231.464844 177.898438c-48.015625-9.472657-83.667968-49.535157-88.078125-97.898438h19.542969c32.472656 0 63.792969 14.230469 85.164062 40.398438-9.425781 18.867187-14.992187 38.136718-16.628906 57.5zm-34.375-113.355469c-11.082031-3.011719-22.527344-4.542969-34.160156-4.542969h-30c-5.523438 0-10 4.476562-10 10 0 16.878906 3.316406 33.644531 9.640625 49.15625-3.839844.5625-7.730469.84375-11.640625.84375-44.113281 0-80-35.886719-80-80s35.886719-80 80-80 80 35.886719 80 80c0 8.4375-1.296875 16.65625-3.839844 24.542969zm-26.160156-266.542969v46h-100v-46zm-190 372v-226c0-44.113281 35.886719-80 80-80h120c44.113281 0 80 35.886719 80 80v154.46875c-.785156 1.167969-1.554688 2.335938-2.3125 3.511719-12.003906-13.074219-26.472656-23.488281-42.675781-30.710938 3.3125-10.042969 4.988281-20.519531 4.988281-31.269531 0-55.140625-44.859375-100-100-100s-100 44.859375-100 100 44.859375 100 100 100c7.105469 0 14.148438-.757812 21.042969-2.234375 10.582031 17.324219 24.863281 31.6875 41.574219 42.234375h-192.617188c-5.515625 0-10-4.484375-10-10zm302 10.019531s-31.058594-.011719-31.585938-.019531c7.101563-87.257812 107.585938-160 169.585938-160h15.941406l-80.628906 72.566406c-4.105469 3.695313-4.441406 10.019532-.746094 14.121094 3.703125 4.113281 10.023438 4.433594 14.125.746094l81.609375-73.453125c-11.691406 82.421875-82.703125 146.039062-168.300781 146.039062zm0 0"/><path d="m170 10c0 5.523438-4.476562 10-10 10s-10-4.476562-10-10 4.476562-10 10-10 10 4.476562 10 10zm0 0"/></svg>