<svg id="Layer_1" enable-background="new 0 0 512 512" height="512" viewBox="0 0 512 512" width="512" xmlns="http://www.w3.org/2000/svg"><g><path d="m255.986 371.718c2.502 0 5.004-.934 6.94-2.801l78.519-75.698c.085-.082.168-.165.249-.249 25.367-26.24 25.367-68.937.003-95.174-10.928-11.312-25.894-17.179-42.151-16.51-15.314.627-30.098 6.906-41.622 17.675-.271.253-1.689 1.798-1.926 1.797s-1.649-1.543-1.92-1.796c-11.543-10.771-26.333-17.049-41.646-17.676-16.279-.672-31.228 5.198-42.152 16.507-25.367 26.24-25.367 68.937 0 95.177.081.084.164.167.249.249l78.518 75.698c1.935 1.867 4.437 2.801 6.939 2.801zm-71.326-160.026c14.049-14.544 39.069-13.693 55.762 1.883 3.397 3.185 6.898 6.935 11.459 8.384 4.882 1.552 9.685.032 13.621-2.99 2.147-1.648 4.096-3.544 6.071-5.389 16.68-15.587 41.685-16.435 55.741-1.885 17.917 18.535 17.955 48.669.116 67.254l-71.445 68.879-71.444-68.878c-17.839-18.587-17.801-48.721.119-67.258z"/><path d="m511.914 284.766-21.4-161.81c-5.332-40.532-14.842-63.065-54.327-81.238-47.499-25.652-111.598-39.594-180.187-39.594-.148 0-101.795-3.503-180.254 39.612-39.413 18.166-48.927 40.695-54.287 81.214l-21.373 161.817c-.377 2.856.495 5.735 2.395 7.901 1.898 2.166 4.639 3.408 7.52 3.408h78.427c-.137 30.801-.552 61.999-.954 92.25-.45 33.875-.876 65.872-.876 94.938 0 14.711 11.963 26.68 26.667 26.68h285.443c14.721 0 26.696-11.969 26.696-26.68 0-29.084-.426-61.103-.877-95.001-.402-30.23-.817-61.406-.954-92.187h78.427c2.881 0 5.621-1.242 7.521-3.409 1.898-2.165 2.77-5.045 2.393-7.901zm-74.04-219.757c22.691 12.977 28.557 28.219 32.811 60.563l14.205 107.404h-61.103c.899-68.778 4.381-130.385 14.087-167.967zm-182.098-43.063h.429c18.114 0 35.852 1.027 52.99 3.015-6.12 23.766-27.899 41.27-53.208 41.27-25.295 0-47.063-17.505-53.18-41.271 17.131-1.988 34.862-3.014 52.969-3.014zm-72.89 5.795c3.276 14.665 10.91 28.046 22.092 38.445 13.898 12.925 32.013 20.044 51.008 20.044 18.996 0 37.115-7.118 51.02-20.042 11.19-10.4 18.829-23.781 22.107-38.445 7.453 1.229 14.761 2.652 21.911 4.257-9.53 44.186-48.928 76.511-95.039 76.511-46.083 0-85.479-32.323-95.033-76.508 7.159-1.607 14.474-3.032 21.934-4.262zm-141.599 97.831c4.278-32.341 10.15-47.587 32.815-60.561 9.717 37.582 13.205 99.187 14.107 167.964h-61.108zm-19.88 150.505 3.052-23.102h63.945c.048 7.642.07 15.349.069 23.102zm377.3 213.868h-285.443c-3.614 0-6.667-3.059-6.667-6.68 0-5.392.015-10.89.042-16.483l52.211-.024c5.522-.002 9.998-4.482 9.995-10.004-.003-5.521-4.479-9.996-10-9.996-.001 0-.003 0-.005 0l-52.061.024c.166-18.575.424-38.045.692-58.189 1.664-125.147 3.542-266.29-15.178-332.908 14.948-7.427 31.494-13.706 49.261-18.762 11.78 52.94 59.111 91.588 114.431 91.588 55.35 0 102.682-38.65 114.438-91.592 17.77 5.056 34.316 11.336 49.258 18.764-18.696 66.605-16.818 207.723-15.153 332.845.268 20.168.527 39.661.693 58.257h-156.548c-5.522 0-10 4.477-10 10s4.478 10 10 10h156.689c.027 5.592.042 11.088.042 16.479-.001 3.685-3.004 6.681-6.697 6.681zm24.818-213.868c-.001-7.753.021-15.46.069-23.102h63.941l3.056 23.102z"/><path d="m203.773 446.786h-.057c-5.522 0-9.972 4.477-9.972 10s4.506 10 10.028 10 10-4.477 10-10-4.477-10-9.999-10z"/></g></svg>