<svg id="Capa_1" enable-background="new 0 0 512 512" height="512" viewBox="0 0 512 512" width="512" xmlns="http://www.w3.org/2000/svg"><path id="XMLID_284_" d="m64 370c0 56.243 45.757 102 102 102s102-45.757 102-102-45.757-102-102-102-102 45.757-102 102zm184 0c0 45.215-36.785 82-82 82s-82-36.785-82-82 36.785-82 82-82 82 36.785 82 82z"/><path id="XMLID_313_" d="m124 370c0 23.159 18.841 42 42 42s42-18.841 42-42-18.841-42-42-42-42 18.841-42 42zm64 0c0 12.131-9.869 22-22 22s-22-9.869-22-22 9.869-22 22-22 22 9.869 22 22z"/><path id="XMLID_316_" d="m292 238v-148c0-5.523-4.477-10-10-10h-232c-5.523 0-10 4.477-10 10v148c0 5.523 4.477 10 10 10h232c5.523 0 10-4.477 10-10zm-20-10h-30v-24.983c0-5.523-4.477-10-10-10s-10 4.477-10 10v24.983h-24v-35.276c0-5.523-4.477-10-10-10s-10 4.477-10 10v35.276h-24v-68.604c0-5.523-4.477-10-10-10s-10 4.477-10 10v68.604h-24v-24.983c0-5.523-4.477-10-10-10s-10 4.477-10 10v24.983h-30v-128h212z"/><path id="XMLID_319_" d="m478 240.107h-16-18c-19.851 0-36 16.149-36 36v62.383c0 14.825 8.918 27.599 21.667 33.262v39.414c0 14.796-12.037 26.833-26.833 26.833s-26.834-12.037-26.834-26.832v-182.418h27.667c25.364 0 46-20.636 46-46v-47.982h12.333c5.523 0 10-4.477 10-10v-56.767h6c18.748 0 34-15.252 34-34s-15.252-34-34-34h-16-18c-19.851 0-36 16.149-36 36v62.383c0 14.825 8.918 27.599 21.667 33.262v51.103c0 14.336-11.664 26-26 26h-27.667v-158.748c0-27.57-22.43-50-50-50h-36c-24.146 0-44.348 17.205-48.994 40h-199.006c-23.159 0-42 18.841-42 42v388c0 23.159 18.841 42 42 42h248c23.159 0 42-18.841 42-42v-149c0-5.523-4.477-10-10-10s-10 4.477-10 10v149c0 12.131-9.869 22-22 22h-248c-12.131 0-22-9.869-22-22v-388c0-12.131 9.869-22 22-22h248c12.131 0 22 9.869 22 22v149c0 5.523 4.477 10 10 10s10-4.477 10-10v-149c0-23.159-18.841-42-42-42h-28.28c4.128-11.639 15.243-20 28.28-20h36c16.542 0 30 13.458 30 30v361.167c0 25.824 21.009 46.833 46.833 46.833s46.833-21.009 46.833-46.833v-36.293h12.334c5.523 0 10-4.477 10-10v-56.767h6c18.748 0 34-15.252 34-34s-15.252-34-34-34zm14-206.107c0 7.72-6.28 14-14 14h-6v-28h6c7.72 0 14 6.28 14 14zm-64 2c0-8.822 7.178-16 16-16h8v38 56.767h-7.617c-9.034 0-16.383-7.35-16.383-16.383zm24 318.874h-7.617c-9.034 0-16.383-7.35-16.383-16.383v-62.383c0-8.822 7.178-16 16-16h8v38zm26-66.767h-6v-28h6c7.72 0 14 6.28 14 14s-6.28 14-14 14z"/><path id="XMLID_323_" d="m322 266c-2.63 0-5.21 1.07-7.07 2.93s-2.93 4.44-2.93 7.07 1.07 5.21 2.93 7.07 4.44 2.93 7.07 2.93 5.21-1.07 7.07-2.93 2.93-4.44 2.93-7.07-1.07-5.21-2.93-7.07-4.44-2.93-7.07-2.93z"/></svg>