<svg id="Layer_1" enable-background="new 0 0 512.001 512.001" height="512" viewBox="0 0 512.001 512.001" width="512" xmlns="http://www.w3.org/2000/svg"><g><g><path d="m446.001 222.001h-240c-11.028 0-20 8.972-20 20v30c0 7.679 4.355 14.35 10.72 17.701l8.229 82.299h-20.343c-.911-3.622-2.253-7.435-3.975-11.142 3.189-1.671 5.368-5.008 5.368-8.858v-20c0-16.542-13.457-30-29.999-30h-7.501v-269.501c0-17.921-14.579-32.5-32.5-32.5s-32.5 14.579-32.5 32.5v269.501h-7.5c-16.542 0-30 13.458-30 30v20c0 3.648 1.96 6.83 4.877 8.577-3.165 6.635-4.877 13.939-4.877 21.423v40c0 49.626 40.374 90 90 90h160c5.522 0 10-4.477 10-10v-10h101.82c15.658 0 28.254-12.194 29.949-28.995l17.505-173.301c6.369-3.349 10.728-10.023 10.728-17.704v-30c-.001-11.028-8.972-20-20.001-20zm-342.501-189.501c0-6.892 5.607-12.5 12.501-12.5 6.892 0 12.499 5.607 12.499 12.5v219.501h-25zm0 239.501h25v30h-25zm-37.5 60c0-5.514 4.486-10 10-10h80.001c5.514 0 9.999 4.486 9.999 10v10h-100zm0 90v-40c0-7.39 2.78-14.507 7.716-20h12.284v40c0 5.523 4.478 10 10 10s10-4.477 10-10v-40h20.001v60c0 5.523 4.478 10 10 10s10-4.477 10-10v-60h12.108c4.69 5.863 7.891 15.314 7.891 20v80c0 11.247 3.735 21.637 10.027 30h-40.027c-38.597 0-70-31.401-70-70zm220 70h-70c-13.036 0-24.152-8.361-28.28-20h68.28c5.522 0 10-4.477 10-10s-4.478-10-10-10h-70v-20h30c5.522 0 10-4.477 10-10s-4.478-10-10-10h-30v-20h30c38.598 0 70 31.402 70 70zm131.87-31.004c-.535 5.3-3.908 11.004-10.051 11.004h-101.819v-10c0-46.556-35.534-84.968-80.904-89.543l-8.045-80.458h63.954c5.522 0 10-4.477 10-10s-4.478-10-10-10h-74.924c-.027 0-.053-.001-.08-.001v-29.999h240v30h-74.996c-5.522 0-10 4.477-10 10s4.478 10 10 10h63.935z"/><path d="m393.578 199.189c22.056 0 40-17.944 40-40s-17.944-40-40-40-40 17.944-40 40 17.945 40 40 40zm0-60c11.028 0 20 8.972 20 20s-8.972 20-20 20-20-8.972-20-20 8.972-20 20-20z"/><path d="m314.378 118.389c16.542 0 30-13.458 30-30s-13.458-30-30-30-30 13.458-30 30 13.458 30 30 30zm0-40c5.514 0 10 4.486 10 10s-4.486 10-10 10-10-4.486-10-10 4.487-10 10-10z"/><path d="m326.009 272.001h-.008c-5.522 0-9.996 4.477-9.996 10s4.481 10 10.004 10 10-4.477 10-10-4.478-10-10-10z"/></g></g></svg>