<svg id="Capa_1" enable-background="new 0 0 512.108 512.108" height="512" viewBox="0 0 512.108 512.108" width="512" xmlns="http://www.w3.org/2000/svg"><path d="m456.054 400.108h-104.15c13.956-11.513 25.944-25.023 35.623-40h38.527c44.112 0 80-35.888 80-80 0-21.36-8.32-41.449-23.433-56.572-15.117-15.108-35.207-23.428-56.567-23.428h-10.5v-20.33c0-5.523-4.478-10-10-10h-330c-5.522 0-10 4.477-10 10v85.33c0 52.831 23.772 102.101 63.65 135h-93.15c-8 0-15.529 3.132-21.182 8.799-5.687 5.671-8.818 13.201-8.818 21.201 0 16.542 13.458 30 30 30h6.976c8.025 30.183 35.687 52 67.644 52h270.01c18.684 0 36.259-7.279 49.495-20.502 8.709-8.719 14.978-19.677 18.138-31.498h7.737c8 0 15.529-3.132 21.182-8.799 5.687-5.671 8.818-13.201 8.818-21.201 0-16.542-13.458-30-30-30zm-40.5-139.929h10.571c5.323 0 10.325 2.073 14.093 5.845 3.764 3.758 5.836 8.76 5.836 14.084 0 10.989-8.94 19.929-19.929 19.929h-14.09c2.312-11.368 3.519-23.058 3.519-34.929zm10.5-40.071c16.021 0 31.09 6.242 42.426 17.57 11.333 11.341 17.574 26.409 17.574 42.43 0 33.084-26.916 60-60 60h-27.387c3.085-6.503 5.762-13.207 8.031-20.071h19.427c22.017 0 39.929-17.912 39.929-39.929 0-10.671-4.156-20.699-11.694-28.226-7.537-7.547-17.564-11.703-28.234-11.703h-10.571v-20.071zm-340.5 45v-75.33h310v75.33c0 14.309-1.979 28.32-5.72 41.716-.086.254-.16.513-.226.776-11.025 38.693-36.854 72.159-72.842 92.509h-152.424c-48.666-27.52-78.788-79.013-78.788-135.001zm377.539 172.059c-1.892 1.897-4.392 2.941-7.039 2.941h-120c-5.522 0-10 4.477-10 10s4.478 10 10 10h91.258c-2.504 6.462-6.34 12.413-11.277 17.356-9.451 9.443-22.006 14.644-35.352 14.644h-270.01c-20.975 0-39.362-13.15-46.655-32h192.035c5.522 0 10-4.477 10-10s-4.478-10-10-10h-220c-5.514 0-10-4.486-10-10 0-2.648 1.045-5.148 2.96-7.059 1.893-1.897 4.393-2.941 7.04-2.941h125.7 157.6 136.7c5.514 0 10 4.486 10 10 .001 2.648-1.044 5.148-2.96 7.059z"/><path d="m316.054 141.433c5.522 0 10-4.477 10-10v-120.279c0-5.523-4.478-10-10-10s-10 4.477-10 10v120.278c0 5.524 4.477 10.001 10 10.001z"/><path d="m216.488 50.815c5.523 0 10-4.477 10-10v-30.815c0-5.523-4.477-10-10-10s-10 4.477-10 10v30.815c0 5.523 4.477 10 10 10z"/><path d="m165.391 140.278c5.523 0 10-4.477 10-10v-101.278c0-5.523-4.477-10-10-10s-10 4.477-10 10v101.278c0 5.523 4.477 10 10 10z"/><path d="m216.488 111.203c-5.523 0-10 4.477-10 10v19.696c0 5.523 4.477 10 10 10s10-4.477 10-10v-19.696c0-5.523-4.477-10-10-10z"/><path d="m266.488 40.185c-5.523 0-10 4.477-10 10v81.094c0 5.523 4.477 10 10 10 5.522 0 10-4.477 10-10v-81.094c0-5.523-4.478-10-10-10z"/><circle cx="216.488" cy="81" r="9.998"/><circle cx="266.488" cy="10.024" r="9.998"/><circle cx="295.803" cy="450.306" r="10.064"/></svg>