<?xml version="1.0" encoding="UTF-8"?>
<svg width="107px" height="108px" viewBox="0 0 107 108" version="1.1" xmlns="http://www.w3.org/2000/svg" xmlns:xlink="http://www.w3.org/1999/xlink">
    <!-- Generator: Sketch 64 (93537) - https://sketch.com -->
    <title>Noon</title>
    <desc>Created with Sketch.</desc>
    <g id="Noon" stroke="none" stroke-width="1" fill="none" fill-rule="evenodd">
        <g id="Group-2" transform="translate(-9.000000, -0.199846)" stroke="#222222">
            <circle id="Oval" stroke-width="4" cx="62.4225774" cy="53.5" r="25"></circle>
            <g id="Group" transform="translate(63.422577, 26.000000) rotate(2.000000) translate(-63.422577, -26.000000) translate(11.422577, 2.000000)" stroke-linecap="round" stroke-linejoin="round" stroke-width="3">
                <line x1="0" y1="46.5" x2="14" y2="47.5" id="Line-Copy"></line>
                <line x1="8.5" y1="19" x2="19" y2="27.5" id="Line-Copy-2"></line>
                <line x1="33.5" y1="1" x2="37.5" y2="13" id="Line-Copy-3"></line>
                <line x1="63.5" y1="0" x2="60.5" y2="12" id="Line-Copy-4"></line>
                <line x1="89.5" y1="15" x2="80" y2="23.5" id="Line-Copy-5"></line>
                <line x1="103.5" y1="42" x2="90.75" y2="44.25" id="Line-Copy-6"></line>
            </g>
            <g id="Group-Copy" transform="translate(62.175697, 84.716184) rotate(171.000000) translate(-62.175697, -84.716184) translate(12.675697, 63.716184)" stroke-linecap="round" stroke-linejoin="round" stroke-width="3">
                <line x1="0.5" y1="19" x2="11" y2="27.5" id="Line-Copy-2"></line>
                <line x1="25.5" y1="1" x2="29.5" y2="13" id="Line-Copy-3"></line>
                <line x1="55.5" y1="0" x2="52.5" y2="12" id="Line-Copy-4"></line>
                <line x1="83.9028083" y1="13.6021812" x2="74.4028083" y2="22.1021812" id="Line-Copy-5"></line>
                <line x1="98.6779613" y1="39.2910235" x2="85.9279613" y2="41.5410235" id="Line-Copy-6"></line>
            </g>
        </g>
    </g>
</svg>