<?xml version="1.0" encoding="UTF-8"?>
<svg width="42px" height="50px" viewBox="0 0 42 50" version="1.1" xmlns="http://www.w3.org/2000/svg" xmlns:xlink="http://www.w3.org/1999/xlink">
    <!-- Generator: Sketch 64 (93537) - https://sketch.com -->
    <title>noun_restart_530651</title>
    <desc>Created with Sketch.</desc>
    <g id="Page-1" stroke="none" stroke-width="1" fill="none" fill-rule="evenodd">
        <g id="noun_restart_530651" fill="#000000" fill-rule="nonzero">
            <path d="M39.7,19.6 C35.5,10.9 26.1,6.5 17.1,8.1 L19.5,3.6 C20.1,2.6 19.7,1.3 18.7,0.8 C17.7,0.2 16.4,0.6 15.9,1.6 L11,10.7 C11,10.7 9.9,12.5 11.6,13.3 L20.7,18.2 C21,18.4 21.4,18.5 21.7,18.5 C22.4,18.5 23.2,18.1 23.5,17.4 C24.1,16.4 23.7,15.1 22.7,14.6 L18,12 C25.1,10.8 32.5,14.4 35.8,21.2 C39.8,29.5 36.3,39.5 28,43.4 C24,45.3 19.5,45.6 15.3,44.1 C11.1,42.6 7.7,39.6 5.8,35.6 C3.9,31.6 3.6,27.1 5.1,22.9 C5.5,21.8 4.9,20.6 3.8,20.2 C2.8,20 1.6,20.6 1.2,21.7 C-0.6,27 -0.3,32.6 2.1,37.6 C4.5,42.6 8.7,46.4 14,48.3 C16.3,49.1 18.6,49.5 20.9,49.5 C24,49.5 27.1,48.8 29.9,47.4 C40.3,42.4 44.7,29.9 39.7,19.6 Z" id="Path"></path>
        </g>
    </g>
</svg>