<svg width="42" height="31" viewBox="0 0 42 31" fill="none" xmlns="http://www.w3.org/2000/svg">
<path d="M1.29503 30.16H40.7729C41.2377 30.16 41.5953 29.8036 41.5953 29.3401V4.31365C41.5953 3.8591 41.2377 3.49371 40.7729 3.49371H39.2263V25.5344C39.2263 26.301 38.8151 27.005 38.1535 27.3883C37.8317 27.5844 37.4652 27.6913 37.0718 27.6913C36.7142 27.6913 36.3477 27.6022 36.0259 27.4239C33.8714 26.1762 31.4756 25.5255 29.035 25.5255C26.6213 25.5255 24.2523 26.1672 22.1872 27.3704L22.071 27.4328L21.9547 27.4863C21.5167 27.6556 21.2843 27.6913 21.0518 27.6913C20.9535 27.6913 20.6495 27.6913 20.1668 27.5041L20.0506 27.4507L19.9344 27.3883C17.8514 26.1762 15.4645 25.5344 13.0329 25.5344C10.5834 25.5344 8.18753 26.1762 6.11356 27.3883C5.7649 27.5932 5.38939 27.6913 5.00499 27.6913C4.62953 27.6913 4.26303 27.5932 3.93226 27.4061C3.27067 27.0229 2.85053 26.3098 2.85053 25.5344V3.49371H1.29503C0.839094 3.49371 0.472534 3.8591 0.472534 4.31365V29.3401C0.472534 29.8036 0.839094 30.16 1.29503 30.16Z" fill="black"/>
<path d="M4.83508 25.8642C4.94235 25.9266 5.08541 25.9266 5.21058 25.8553C7.61537 24.4471 10.3241 23.7519 13.0328 23.7519C15.7326 23.7519 18.4324 24.4471 20.8372 25.8464C20.8819 25.8642 21.0071 25.9088 21.0518 25.9088C21.0607 25.9088 21.1948 25.8642 21.2842 25.8286C26.058 23.0478 32.0476 23.0478 36.8661 25.8553C37.0003 25.9266 37.1433 25.9266 37.2327 25.8642C37.3668 25.7929 37.4383 25.6681 37.4383 25.5344V2.53113C37.4383 2.39748 37.3668 2.27269 37.2505 2.2103C34.7385 0.739703 31.8867 0 29.0439 0C26.362 0 23.6711 0.65952 21.2574 1.97856L21.0428 2.09443L20.8283 1.97856C15.8578 -0.739757 9.72514 -0.650653 4.82618 2.2103C4.70996 2.27269 4.63843 2.39748 4.63843 2.53113V25.5344C4.63843 25.6681 4.70996 25.7929 4.83508 25.8642ZM23.5613 5.15083C27.0495 3.93933 30.8959 3.92252 34.3953 5.10241C34.8258 5.24733 35.0564 5.71298 34.911 6.14174C34.7664 6.57094 34.2998 6.80197 33.8685 6.6558C30.7136 5.59205 27.2463 5.60804 24.1026 6.69948C24.0127 6.73071 23.9219 6.7455 23.8319 6.7455C23.4914 6.7455 23.1733 6.5333 23.0553 6.195C22.9059 5.76743 23.1324 5.29977 23.5613 5.15083ZM23.5613 8.1692C27.0495 6.95852 30.8975 6.94128 34.3953 8.12117C34.8258 8.26652 35.0564 8.73173 34.911 9.16055C34.7664 9.5897 34.2998 9.81991 33.8685 9.67461C30.7136 8.61004 27.2463 8.62604 24.1026 9.71786C24.0127 9.74908 23.9219 9.76388 23.8319 9.76388C23.4914 9.76388 23.1733 9.55167 23.0553 9.21337C22.9059 8.7858 23.1324 8.31814 23.5613 8.1692ZM23.5613 11.188C27.0479 9.97647 30.8959 9.95928 34.3953 11.1399C34.8258 11.2853 35.0564 11.7505 34.911 12.1793C34.7664 12.6089 34.2998 12.8403 33.8685 12.6934C30.7136 11.6288 27.247 11.6452 24.1026 12.7366C24.0127 12.7678 23.9219 12.7826 23.8319 12.7826C23.4914 12.7826 23.1733 12.5705 23.0553 12.2321C22.9059 11.8046 23.1324 11.3369 23.5613 11.188ZM23.5613 14.2068C27.0479 12.996 30.8959 12.978 34.3953 14.1587C34.8258 14.304 35.0564 14.7693 34.911 15.1981C34.7664 15.6273 34.2998 15.8583 33.8685 15.7122C30.7136 14.648 27.247 14.6632 24.1026 15.7554C24.0127 15.7866 23.9219 15.8014 23.8319 15.8014C23.4914 15.8014 23.1733 15.5892 23.0553 15.2509C22.9059 14.8233 23.1324 14.3557 23.5613 14.2068ZM23.5613 17.2255C27.0495 16.014 30.8959 15.9972 34.3953 17.1771C34.8258 17.322 35.0564 17.7877 34.911 18.2164C34.7664 18.6456 34.2998 18.8763 33.8685 18.7306C30.7136 17.6667 27.2463 17.6827 24.1026 18.7742C24.0127 18.8054 23.9219 18.8202 23.8319 18.8202C23.4914 18.8202 23.1733 18.608 23.0553 18.2697C22.9059 17.8421 23.1324 17.3745 23.5613 17.2255ZM7.53947 5.15083C11.0269 3.93971 14.8749 3.92171 18.3735 5.10241C18.8041 5.24771 19.0345 5.71298 18.8892 6.14174C18.7438 6.57094 18.278 6.80197 17.8466 6.6558C14.6934 5.59205 11.2244 5.60804 8.0808 6.69948C7.99083 6.73071 7.90009 6.7455 7.81011 6.7455C7.46958 6.7455 7.15153 6.5333 7.03345 6.195C6.88405 5.76743 7.11055 5.29977 7.53947 5.15083ZM7.53947 8.1692C11.0277 6.95852 14.8757 6.94128 18.3735 8.12117C18.8041 8.26652 19.0345 8.73173 18.8892 9.16093C18.743 9.5897 18.278 9.81991 17.8466 9.67461C14.6934 8.61004 11.2244 8.62604 8.0808 9.71786C7.99083 9.74908 7.90009 9.76388 7.81011 9.76388C7.46958 9.76388 7.15153 9.55167 7.03345 9.21337C6.88405 8.78537 7.11055 8.31814 7.53947 8.1692ZM7.53947 11.188C11.0277 9.97647 14.8757 9.95928 18.3735 11.1399C18.8041 11.2853 19.0345 11.7505 18.8892 12.1797C18.743 12.6081 18.278 12.8403 17.8466 12.6934C14.6917 11.6288 11.2244 11.6452 8.0808 12.7366C7.99083 12.7678 7.90009 12.7826 7.81011 12.7826C7.46958 12.7826 7.15153 12.5705 7.03345 12.2321C6.88405 11.8046 7.11055 11.3369 7.53947 11.188ZM7.53947 14.2068C11.0277 12.996 14.8757 12.978 18.3735 14.1587C18.8041 14.304 19.0345 14.7693 18.8892 15.1985C18.743 15.6273 18.278 15.8583 17.8466 15.7122C14.6917 14.648 11.2244 14.6632 8.0808 15.7554C7.99083 15.7866 7.90009 15.8014 7.81011 15.8014C7.46958 15.8014 7.15153 15.5892 7.03345 15.2509C6.88405 14.8233 7.11055 14.3557 7.53947 14.2068ZM7.53947 17.2255C11.0269 16.014 14.8749 15.9968 18.3735 17.1771C18.8041 17.3224 19.0345 17.7877 18.8892 18.2164C18.7438 18.6456 18.278 18.8763 17.8466 18.7306C14.6934 17.6667 11.2244 17.6827 8.0808 18.7742C7.99083 18.8054 7.90009 18.8202 7.81011 18.8202C7.46958 18.8202 7.15153 18.608 7.03345 18.2697C6.88405 17.8421 7.11055 17.3745 7.53947 17.2255Z" fill="black"/>
</svg>
