<svg id="Capa_1" enable-background="new 0 0 512 512" height="512" viewBox="0 0 512 512" width="512" xmlns="http://www.w3.org/2000/svg"><g id="XMLID_886_"><g id="XMLID_500_"><g id="XMLID_839_"><path id="XMLID_845_" d="m436.087 408.509c-.096-.072-.196-.134-.292-.205 3.77-3.523 6.76-7.877 8.695-12.82 6.166-15.742.252-33.598-14.062-42.456-29.688-18.374-47.465-50.34-47.552-85.509-.089-36.134-24.229-66.702-57.104-76.397 5.551-3.808 10.717-8.206 15.378-13.141 14.913-15.786 24.058-36.414 25.75-58.085 2.405-30.814-8.252-61.502-29.24-84.191-20.988-22.691-50.751-35.705-81.66-35.705s-60.672 13.014-81.66 35.704c-20.988 22.689-31.646 53.377-29.24 84.191 1.683 21.552 10.747 42.096 25.524 57.846 4.72 5.031 9.97 9.505 15.614 13.377-32.88 9.691-57.026 40.263-57.114 76.4-.087 35.169-17.864 67.135-47.552 85.509-14.313 8.858-20.228 26.714-14.062 42.456 1.936 4.943 4.926 9.297 8.696 12.82-.096.071-.196.134-.292.205-14.66 10.953-23.068 27.731-23.068 46.031 0 31.684 25.776 57.46 57.46 57.46h291.391c31.684 0 57.46-25.776 57.46-57.46-.002-18.299-8.41-35.077-23.07-46.03zm-98.014-51.84c1.457 2.373 2.968 4.719 4.545 7.031 8.536 12.506 18.51 23.659 29.794 33.35h-34.34v-40.381zm81.83 13.364c6.099 3.774 8.607 11.41 5.964 18.157-1.633 4.171-5.011 7.373-9.265 8.785-4.232 1.404-8.823.863-12.599-1.484-17.839-11.096-32.935-25.585-44.866-43.066-7.332-10.741-13.198-22.252-17.521-34.351h32.291c9.703 21.136 25.468 39.255 45.996 51.959zm-196.359-252.583c9.659 0 18.716-3.827 25.422-10.299 8.132 6.44 18.395 10.299 29.55 10.299h25.298v22.429c0 26.365-21.45 47.814-47.814 47.814s-47.814-21.449-47.814-47.814v-22.429zm14.288 87.752c5.787 1.612 11.875 2.492 18.168 2.492s12.381-.88 18.168-2.492v14.66c0 10.018-8.15 18.168-18.168 18.168s-18.168-8.15-18.168-18.168zm-72.793-86.863c-2.002-25.646 6.515-50.17 23.983-69.055 17.467-18.884 41.254-29.284 66.978-29.284s49.511 10.4 66.978 29.284c17.468 18.885 25.985 43.408 23.983 69.055-1.812 23.218-14.413 43.781-32.827 56.415 6.14-10.197 9.68-22.129 9.68-34.875v-32.429c0-5.522-4.477-10-10-10h-35.298c-15.27 0-27.692-12.423-27.692-27.692 0-5.522-4.477-10-10-10s-10 4.478-10 10c0 7.885 1.935 15.323 5.338 21.882-3.107 3.625-7.693 5.81-12.618 5.81h-25.358c-5.523 0-10 4.478-10 10v32.429c0 12.899 3.622 24.966 9.9 35.243-18.65-12.499-31.195-33.056-33.047-56.783zm43.447 89.558h9.346v11.964c0 21.046 17.122 38.168 38.168 38.168s38.168-17.122 38.168-38.168v-11.964h9.346c32.652 0 59.282 26.768 59.363 59.67.026 10.469 1.365 20.701 3.904 30.507h-28.708v-5.651c0-5.522-4.477-10-10-10s-10 4.478-10 10v104.627h-17.073c-5.523 0-10 4.478-10 10s4.477 10 10 10h24.836l-69.836 20.648-69.836-20.648h24.836c5.523 0 10-4.478 10-10s-4.477-10-10-10h-17.073v-104.627c0-5.522-4.477-10-10-10s-10 4.478-10 10v5.651h-28.708c2.54-9.806 3.879-20.038 3.904-30.507.082-32.902 26.711-59.67 59.363-59.67zm-2.127 284.103h-41.173v-60.296l56.59 16.732c-11.025 5.682-18.317 17.238-18.317 29.928 0 4.853 1.041 9.465 2.9 13.636zm-32.432-94.95h-34.34c11.284-9.691 21.258-20.843 29.795-33.35 1.577-2.311 3.088-4.658 4.545-7.031zm-81.83-27.017c20.528-12.704 36.294-30.823 45.996-51.959h32.291c-4.323 12.098-10.19 23.609-17.521 34.351-11.931 17.481-27.026 31.971-44.866 43.066-3.776 2.348-8.368 2.89-12.598 1.484-4.254-1.412-7.632-4.614-9.265-8.785-2.644-6.747-.136-14.382 5.963-18.157zm-19.252 84.507c0-11.931 5.481-22.868 15.039-30.009 9.558-7.143 21.601-9.299 33.042-5.914l24.26 7.173v66.21h-34.881c-20.656 0-37.46-16.805-37.46-37.46zm164.25 37.46c-7.519 0-13.636-6.117-13.636-13.637 0-5.999 4.017-11.376 9.77-13.076l113.585-33.584v60.297zm164.6 0h-34.881v-66.21l24.259-7.173c3.55-1.05 7.156-1.565 10.729-1.565 7.944 0 15.721 2.554 22.313 7.479 9.558 7.141 15.039 18.078 15.039 30.009.001 20.655-16.803 37.46-37.459 37.46z"/><path id="XMLID_1048_" d="m256 417.05c2.63 0 5.21-1.07 7.07-2.93s2.93-4.44 2.93-7.07-1.07-5.21-2.93-7.07c-1.86-1.859-4.44-2.93-7.07-2.93s-5.21 1.07-7.07 2.93-2.93 4.44-2.93 7.07 1.07 5.21 2.93 7.07c1.86 1.859 4.44 2.93 7.07 2.93z"/></g></g></g></svg>